<?xml version="1.0"?><svg id="Layer_2" xmlns="http://www.w3.org/2000/svg" xmlns:xlink="http://www.w3.org/1999/xlink" viewBox="0 0 592.2183 185.7"><defs><linearGradient id="linear-gradient" x1="61.1404" y1="688.4208" x2="177.8878" y2="688.4208" gradientTransform="translate(0 -600)" gradientUnits="userSpaceOnUse"><stop offset=".1459" stop-color="#ee205d"></stop><stop offset="1" stop-color="#2c2a6b"></stop></linearGradient></defs><g id="Components"><g id="_02cf98c5-2f48-4c13-8259-d41640aba4fd_1"><g id="type"><path id="type_CompoundPathItem_" d="m313.8844,128c-.4-1-1.3-1.8-2.3-2.1-3.8-1-7.6-3.9-7.6-7.4v-37.9c0-22-12.6-34.6-34.6-34.6-8.9,0-20.5.7-31.2,5.8-1.1.5-1.9,1.6-2,2.8l-1.7,17.7c-.2,1.9,1.2,3.6,3.2,3.8.8.1,1.6-.1,2.2-.5,7.4-4.5,15.8-6.8,24.4-6.8,3.9,0,12.8,1.1,12.8,11.8v2.2c-.3,0-.6.1-.9.1-18.9,2.2-47.5,5.6-47.5,33.2,0,18.6,15.6,26.9,31,26.9,8.1,0,16.2-1.2,22-8.8,4.2,5.6,10.8,8.8,17.8,8.8,2.3,0,4.5-.4,6.6-1.3.6-.3,1.2-.7,1.5-1.3l6-9.3c.6-.9.7-2.1.3-3.1Zm-49.5-5.7c-5.5,0-9-3.4-9-8.7s4.6-8.1,8.8-8.9l12.8-2.6v12c-3.6,6.2-6.7,8.2-12.6,8.2h0Z" style="fill:#fff;"></path><path id="type_PathItem_" d="m364.0844,127.6c-.5-1.1-1.5-1.9-2.7-2-8.5-1.1-10.2-4.3-10.2-9.1V3.5c0-1.9-1.6-3.5-3.5-3.5-.4,0-.8.1-1.2.2l-19.9,7.2c-1.4.5-2.3,1.8-2.3,3.3v110.9c0,12.2,9.5,21.4,22.1,21.4,3.2,0,6.5,0,9.7-1.3.7-.3,1.2-.7,1.6-1.3l6.2-9.4c.6-1.1.7-2.3.2-3.4Z" style="fill:#fff;"></path><path id="type_PathItem_2" d="m412.0844,127.6c-.5-1.1-1.5-1.9-2.7-2-8.5-1.1-10.2-4.3-10.2-9.1V3.5c0-1.9-1.6-3.5-3.5-3.5-.4,0-.8.1-1.2.2l-19.9,7.2c-1.4.5-2.3,1.8-2.3,3.3v110.9c0,12.2,9.5,21.4,22.1,21.4,3.2,0,6.5,0,9.7-1.3.7-.3,1.2-.7,1.6-1.3l6.2-9.4c.6-1.1.7-2.3.2-3.4Z" style="fill:#fff;"></path><path id="type_CompoundPathItem_2" d="m458.2844,46c-13.4,0-24.6,5.1-32.4,14.8-7,8.7-10.9,20.7-10.9,33.9,0,28.9,17.4,48.3,43.3,48.3,27.2,0,42.8-17.6,42.8-48.3.1-24.2-13.2-48.7-42.8-48.7Zm0,24.7c9.7,0,13.8,7.2,13.8,24,0,15.5-2.2,24-13.8,24-12.1,0-14.7-13-14.7-24,0-15.9,5-24,14.7-24h0Z" style="fill:#fff;"></path><path id="type_PathItem_3" d="m591.5844,50.1c-.7-.9-1.7-1.5-2.9-1.5h-19.1c-1.5,0-2.8,1-3.3,2.4l-15.7,46.3-17.2-46.4c-.5-1.4-1.8-2.3-3.3-2.3h-20.6c-1.9,0-3.5,1.6-3.5,3.5,0,.4.1.9.2,1.3l30.7,79.5c-1.8,9.5-7.8,25.2-14.4,25.2-3.9.1-7.8-.5-11.5-1.8-1.8-.7-3.8.2-4.5,2.1-.1.4-.2.8-.2,1.2v19.8c0,1.5.9,2.8,2.3,3.3,5.5,2,11.3,3,17.2,3,20.2,0,27-20.6,31.9-35.7.7-2.2,1.4-4.4,2.1-6.3l32.2001-90.4c.4-1.1.3-2.3-.4-3.2Z" style="fill:#fff;"></path></g><g id="logoMark"><path id="logoMark_CompoundPathItem_" d="m170.0844,84.6c3.4-12.7,5.8-25.7,7.3-38.8,1.2-9.3,1.8-18.7,2-28v-1.4c0-2.7-2.2-4.8-4.9-4.9h-42.7c-1.2,0-2.4.4-3.3,1.3l-.1.1-.1.1c-.9.9-1.3,2.1-1.3,3.3s-.1,2.3-.1,3.5C107.0844,7.1,81.1844,3.9,58.5844,10.1,31.9844,17.5,11.2844,38.9,3.3844,65.3c-3.8,12.6-4.4,26.1-1.8,39,2.7,12.9,8.4,25,16.7,35.3,17.2,21.8,45,32.8,72.5,29.7,13.2-1.5,25.7-6.3,36.5-13.9.2,3,.3,6,.4,9.1v.7c0,2.7,2.2,4.8,4.9,4.9h43.1c2.7,0,4.8-2.2,4.9-4.9-.1-27.1-2.6-54.6-10.5-80.6Zm-63.2,14.3c-.2.2-.4.5-.4.5-.4.5-.9,1.1-1.4,1.6-1,1.1-2.1,2.2-3.2,3.3-.5.5-1,.9-1.5,1.3-.3.2-.5.4-.8.6h0s-.1,0-.1.1c-1.2.8-2.4,1.7-3.7,2.4-.6.3-1.2.6-1.8.9-.2.1-1,.5-1.3.6-1.3.5-2.6.9-3.9,1.3-.7.2-1.3.3-2,.4-.2,0-1.5.2-1.5.2-1.5.2-3,.2-4.5.2-6.7,0-13.2-2.9-17.7-7.8-1.9-2.2-3.5-4.8-4.6-7.5-.5-1.6-1-3.2-1.2-4.8v-.3c0-.5-.1-.9-.1-1.4-.1-.9-.1-1.8,0-2.8,0-.4,0-.8.1-1.2,0,0,.1-.7.1-.9.1-.7.3-1.5.4-2.2.2-.8.4-1.6.7-2.4.1-.3.2-.6.3-.9.1-.2.2-.5.3-.7,0,0,0-.1.1-.2,3.9-9.2,13.2-14.9,23.2-14.3.6,0,1.1.1,1.7.1.3,0,.6.1.9.1,1.1.2,2.1.4,3.2.6,1,.3,2,.6,3,.9.5.2,1,.4,1.4.5-1.4-.5.4.2.8.4,1.9,1,3.7,2.1,5.4,3.3.1.1.2.1.2.1q.1.1.3.2c.4.3.8.7,1.2,1,.9.8,1.7,1.5,2.5,2.4.7.8,1.4,1.5,2.1,2.4.3.4.7.8,1,1.2h0c.2.3.4.5.6.8,1.4,1.9,2.6,3.8,3.8,5.9.9,1.5,1.6,3.1,2.4,4.6-.2.3-.3.6-.4.9-1.5,2.8-3.2,5.4-5,8-.1,0-.4.4-.6.6h0Z" style="fill:#270e3f;"></path><path id="logoMark_PathItem_" d="m169.2844,21.3h.3c-.1,4.7-.5,9.4-.9,14-.3,3.1-.6,6.2-.9,9.3-.2,1.6-.4,3.1-.6,4.7,0,.3-.1.6-.1.7-.1.4-.1.8-.2,1.1-.1,1-.3,1.9-.4,2.9-.7,4.5-1.5,9-2.4,13.5-6.4-15.2-15.3-29.4-27.6-40.3.1-2,.1-4,.1-6l32.7.1Z" style="fill:#80bfd8;"></path><path id="logoMark_PathItem_2" d="m152.8844,105.3c-.1.2-.2.4-.3.6-.2.5-.5,1.1-.7,1.6-.9,2-1.8,4-2.8,6-2,3.9-4.1,7.8-6.5,11.5-1.1,1.8-2.4,3.5-3.6,5.3-.3.4-.6.8-.9,1.2,0,0-.1.2-.2.3-.1.1-.2.3-.2.3-.7.8-1.4,1.7-2.1,2.5-.1.1-.3.3-.4.4-.3-2.3-.6-4.6-1-6.9-1.6-10.5-4-20.8-7.5-30.8-.9-2.6-1.9-5.2-3-7.7,2-4.4,3.7-9,5.1-13.6,3.5-11.7,5.8-23.8,6.9-36,1.7,1.9,3.4,3.8,5,5.8,0,.1.1.1.1.1l.1.1c.2.2.3.5.5.7.4.5.8,1,1.1,1.5.8,1.1,1.6,2.2,2.3,3.4,3.1,4.7,5.9,9.7,8.3,14.9,1.5,3.1,2.1,4.6,3.2,7.5,1.1,2.8,2.1,5.6,3.1,8.5.3.8.5,1.5.7,2.3-1.7,6-3.6,11.9-5.9,17.6-.5.9-.9,1.9-1.3,2.9Z" style="fill:#f9cb5a;"></path><path id="logoMark_PathItem_3" d="m137.7844,160.2h-.6c-.1-4.2-.3-8.3-.7-12.5,1.4-1.4,2.8-2.8,4.2-4.2,10.7-12,18.3-26.4,23.9-41.4,2.9,13.4,4.7,26.9,5.5,40.6.4,5.9.5,11.7.6,17.6l-32.9-.1Z" style="fill:#93d0c5;"></path><path id="logoMark_PathItem_4" d="m91.6844,159.4h0c.1,0,.3,0,.4-.1,0,0-.1.1-.4.1Z" style="fill:#f26323;"></path><path id="logoMark_PathItem_5" d="m123.6844,146.1h0c-.5.4-1,.7-1.5,1.1-1.8,1.3-3.6,2.5-5.4,3.6-1.8,1.1-3.7,2.1-5.7,3-.5.2-1,.4-1.4.7-.2.1-.4.2-.6.3h0c-1,.4-2.1.8-3.1,1.2-4.4,1.6-9,2.7-13.6,3.4h-.7.2-.2c-.6.1-1.2.1-1.8.2-1.3.1-2.7.2-4,.3-3,.2-6,.2-8.9,0-13.1-.7-25.8-5.1-36.5-12.7-4.9-3.6-9.4-7.7-13.3-12.4-1.8-2.1-3.5-4.4-5.1-6.8-1.7-2.6-3.3-5.3-4.7-8.1-.6-1.3-1.2-2.6-1.8-3.9-.1-.1-.5-1.2-.6-1.4-.3-.8-.6-1.7-.9-2.5-1-2.9-1.9-5.9-2.5-8.9-.3-1.4-.6-2.8-.8-4.3,0-.2-.2-1.1-.2-1.3-.1-.8-.2-1.6-.3-2.4-.3-2.9-.4-5.9-.3-8.9.5-11.9,3.7-23.5,9.6-33.9,5.7-10.5,14.4-19.4,24.8-25.7,5.5-3.3,11.4-5.8,17.6-7.4,6.6-1.8,13.5-2.6,20.3-2.5,2.8,0,5.7.2,8.5.5.6.1,1.3.1,1.9.2h.2c.3,0,.6.1.8.1,1.4.2,2.8.5,4.2.8,2.5.5,5,1.2,7.4,2,1.2.4,2.3.8,3.5,1.2.6.2,1.1.4,1.7.7.1,0,.2.1.3.1-.2-.1.5.2.7.3,4.6,2,9,4.6,13.2,7.5.5.3,1,.7,1.4,1.1.1,0,.1.1.2.2-.2,2.6-.3,5.2-.6,7.7-.7,7.4-1.8,14.7-3.4,21.9-1.2,5.7-2.8,11.4-4.8,16.9-1.8-3-3.9-5.9-6.3-8.6-6.6-7.9-16-12.9-26.1-14.2-16.1-2.1-31.5,7.9-36.2,23.7-5,15.9,2.8,33.7,18.2,40.3,13.7,5.9,29.4,2.6,40.5-6.9,3.8-3.3,7.1-7.1,9.9-11.4,2.8,8.3,5,16.8,6.4,25.4.4,2.3.8,4.7,1.1,7,.1.5.2,1.1.2,1.6,0,.2.1.4.1.6h0c.1,1.1.3,2.3.4,3.4.2,1.6.3,3.2.5,4.8-.7.6-1.4,1.2-2.1,1.8-.1.3-.3.4-.4.6Z" style="fill:url(#linear-gradient);"></path></g></g></g></svg>