<?xml version="1.0"?><svg id="Layer_2" xmlns="http://www.w3.org/2000/svg" xmlns:xlink="http://www.w3.org/1999/xlink" viewBox="0 0 592.2316 185.4384"><defs><linearGradient id="linear-gradient" x1="61.1524" y1="97.9695" x2="177.8998" y2="97.9695" gradientTransform="translate(0 186.4384) scale(1 -1)" gradientUnits="userSpaceOnUse"><stop offset=".1459" stop-color="#ee205d"></stop><stop offset="1" stop-color="#2c2a6b"></stop></linearGradient></defs><g id="Components"><g id="bead53c1-1547-4123-abf2-6aa529fba87d_1"><g id="type"><path id="type_CompoundPathItem_" d="m313.9044,127.9606c-.3972-1.0453-1.2689-1.8385-2.3469-2.1358-3.7556-1.0358-7.5577-3.9227-7.5577-7.4362v-37.7772c0-21.9835-12.6069-34.5918-34.5885-34.5918-8.89,0-20.4732.6641-31.2309,5.8424-1.1048.532-1.8517,1.6022-1.97,2.8227l-1.717,17.6877c-.1872,1.9289,1.2247,3.6442,3.1536,3.8314.7795.0756,1.5619-.1117,2.2226-.5321,7.3557-4.4567,15.7888-6.8199,24.3893-6.8344,3.85,0,12.8052,1.1474,12.8052,11.7741v2.2133c-.3024.0358-.6065.0717-.9122.1076-18.9215,2.2313-47.5157,5.603-47.5157,33.2259,0,18.5566,15.5616,26.8629,30.9843,26.8629,8.0734,0,16.1858-1.2016,22.0216-8.7773,4.2236,5.5726,10.8288,8.8259,17.8209,8.7773,2.2586.0088,4.4952-.4447,6.572-1.3325.6224-.2762,1.151-.7275,1.5214-1.2989l6.0122-9.2738c.6084-.9381.7331-2.1101.3358-3.1553Zm-49.4742-5.695c-5.4834,0-9.0264-3.4086-9.0264-8.6837,0-5.3089,4.5648-8.0886,8.8368-8.92l12.8235-2.5914v11.9524c-3.6749,6.2945-6.7277,8.2427-12.6339,8.2427h0Z" style="fill:#270e3f;"></path><path id="type_PathItem_" d="m364.1364,127.5753c-.5018-1.0962-1.5313-1.8579-2.7263-2.0172-8.4761-1.131-10.1789-4.3042-10.1789-9.0573V3.5087c0-1.9377-1.5707-3.5086-3.5084-3.5086-.4073,0-.8116.0709-1.1946.2096l-19.9181,7.2112c-1.3891.5029-2.3145,1.822-2.3144,3.2993v110.9331c0,12.1817,9.4821,21.3678,22.0563,21.3678,3.2024,0,6.514,0,9.7179-1.2822.6682-.2676,1.238-.7341,1.6323-1.3364l6.18-9.4451c.6601-1.0089.756-2.2859.2542-3.3821Z" style="fill:#270e3f;"></path><path id="type_PathItem_2" d="m412.0508,127.5753c-.5019-1.0961-1.5314-1.8578-2.7264-2.0172-8.4735-1.131-10.1759-4.3042-10.1759-9.0573V3.5087C399.1486,1.571,397.5779.0001,395.6402,0c-.4075,0-.8119.0709-1.195.2097l-19.9211,7.2112c-1.3891.5028-2.3145,1.8219-2.3145,3.2993v110.9331c0,12.1817,9.4807,21.3678,22.0532,21.3678,3.2039,0,6.517,0,9.7209-1.2822.6682-.2676,1.2381-.7341,1.6324-1.3364l6.18-9.4451c.6601-1.0088.7563-2.2858.2548-3.3821Z" style="fill:#270e3f;"></path><path id="type_CompoundPathItem_2" d="m458.3193,46.0197c-13.3716,0-24.587,5.1181-32.434,14.8011-7.0383,8.685-10.9143,20.7139-10.9143,33.8711,0,28.9072,17.42,48.3293,43.3483,48.3293,27.2217,0,42.8342-17.6153,42.8342-48.3293,0-24.2269-13.2446-48.6722-42.8342-48.6722Zm0,24.7055c9.6981,0,13.8362,7.1675,13.8362,23.9667,0,15.5433-2.2049,23.9664-13.8362,23.9664-12.1438,0-14.693-13.0331-14.693-23.9664,0-15.9033,4.9436-23.9668,14.693-23.9668h0Z" style="fill:#270e3f;"></path><path id="type_PathItem_3" d="m591.5899,50.0823c-.6573-.9321-1.7267-1.4865-2.8673-1.4865h-19.0615c-1.5027.0001-2.8386.9571-3.3221,2.38l-15.7289,46.2682-17.1517-46.3568c-.5095-1.3771-1.8226-2.2914-3.2909-2.2914h-20.6067c-1.9379,0-3.5089,1.5711-3.5088,3.509,0,.4328.0801.8618.2362,1.2655l30.7259,79.4527c-1.7957,9.4964-7.8176,25.1607-14.404,25.1607-3.9045.0852-7.7922-.5378-11.4747-1.8389-1.8146-.6803-3.8371.2392-4.5174,2.0538-.1477.3939-.2233.8112-.2233,1.2319v19.75c0,1.4581.9018,2.7643,2.2653,3.2812,5.5143,2.0126,11.3448,3.0203,17.2148,2.9752,20.2355,0,26.9821-20.6191,31.9081-35.6743.7292-2.2285,1.4262-4.3606,2.13-6.3129l32.1153-90.1675c.3826-1.0745.2192-2.2679-.4383-3.1999Z" style="fill:#270e3f;"></path></g><g id="logoMark"><path id="logoMark_CompoundPathItem_" d="m170.1364,84.6206c3.3823-12.7253,5.8335-25.6801,7.334-38.7615,1.1636-9.305,1.8253-18.6659,1.9823-28.0421.0057-.4514.0106-.9032.0071-1.3548-.0391-2.6815-2.2034-4.8459-4.8849-4.885h-42.687c-1.2394-.0361-2.4388.4405-3.3155,1.3172-.0418.0353-.0787.0761-.12.113-.0439.0486-.0929.0929-.1348.1431-.874.8768-1.3493,2.0742-1.3146,3.3117-.0015,1.1739-.066,2.3463-.0838,3.52C107.1309,7.1078,81.2217,3.8815,58.6131,10.1497,31.9653,17.5369,11.2517,38.9038,3.399,65.2525c-3.7972,12.6823-4.4238,26.1027-1.8248,39.0836,2.7268,12.8946,8.4404,24.9698,16.6816,35.2552,17.2044,21.7978,44.9746,32.8223,72.4639,29.7051,13.1527-1.4819,25.7141-6.2779,36.5076-13.939.1624,3.0214.2882,6.045.3774,9.0707.0064.2217.005.4438.0057.6655.0384,2.6818,2.203,4.8466,4.8848,4.8852h43.0917c2.6821-.0381,4.8472-2.2031,4.8855-4.8852-.022-26.9587-2.4974-54.5383-10.336-80.473Zm-63.2086,14.2359c-.1618.2-.4307.5359-.4151.5167-.4477.5481-.9065,1.0869-1.3764,1.6164-1.0131,1.1391-2.0788,2.2315-3.2,3.264-.4995.4605-1.0104.9086-1.5325,1.3445-.259.2161-.5215.4275-.7854.6377l-.0064.0053c-.0433.03-.0667.0454-.1248.0858-1.2019.839-2.4024,1.66-3.6816,2.38-.5768.3241-1.1621.6316-1.756.9224-.1916.0936-1.0373.453-1.2785.5656-1.2798.503-2.5876.932-3.9167,1.2848-.6584.1683-1.3215.3166-1.9894.4447-.2462.0472-1.4509.2107-1.5176.2341-1.4961.1588-3.0002.23-4.5046.213-6.7406-.0368-13.1646-2.8646-17.7443-7.8106-1.9254-2.2339-3.4657-4.7726-4.5578-7.5121-.5425-1.5637-.9531-3.1701-1.2274-4.8023-.0078-.0412-.0213-.1538-.0341-.2656-.0489-.4748-.09-.95-.1156-1.4268-.0504-.9225-.0547-1.8459-.0128-2.77.0177-.417.0443-.8334.08-1.2491.0014-.02.0936-.7221.1135-.9261.122-.7421.2632-1.4814.4413-2.2122.1972-.8095.4278-1.6099.6917-2.401.1058-.3161.2167-.6304.3328-.9431.0873-.2365.1809-.4708.2746-.7051.0071-.01.0326-.0656.095-.2063,3.9238-9.1876,13.2086-14.9082,23.1793-14.2815.5556.0204,1.1102.0537,1.6638.1.3093.0259.6187.0674.9287.0907,1.055.2,2.1093.3606,3.1537.6227,1.0046.2521,1.995.5517,2.9713.8988.4825.1715.9557.3648,1.4332.5482-1.4246-.5468.4058.1987.7812.3819,1.9074.952,3.7306,2.064,5.45,3.3243.0979.07.1511.1068.2093.1474.056.05.1326.1169.254.2193.3923.3324.79.6585,1.1742.9991.857.757,1.6821,1.5478,2.4754,2.3725.7333.76,1.4409,1.5441,2.1228,2.3522.3455.4085.6733.8313,1.0167,1.2412l.0255.03.0029.0041c.1915.2632.3909.5209.5825.7838,1.3684,1.8833,2.6352,3.8385,3.795,5.857.8727,1.5109,1.6361,3.0808,2.4073,4.6454-.15.2847-.2788.58-.4313.8626-1.4879,2.775-3.171,5.4408-5.0367,7.9773.0159-.0222-.2551.3322-.4112.5383h.0005Z" style="fill:#270e3f;"></path><path id="logoMark_PathItem_" d="m169.3072,21.3474h.3249c-.1312,4.6845-.4682,9.3721-.862,14.03-.2611,3.0982-.5709,6.1918-.9294,9.2808-.1817,1.57-.3817,3.1383-.5861,4.7059-.0355.27-.0794.6015-.0979.7326-.0533.3811-.1073.7622-.1618,1.1433-.1383.9695-.2821,1.9382-.4313,2.9063-.6939,4.5137-1.529,9.0043-2.45,13.478-6.3989-15.1957-15.2959-29.402-27.6063-40.3227.0887-1.9836.1064-3.9691.1462-5.9541h32.6537Z" style="fill:#80bfd8;"></path><path id="logoMark_PathItem_2" d="m152.8583,105.2606c-.0887.204-.1752.4088-.2632.613-.2313.5349-.4654,1.0686-.7024,1.6011-.8996,2.0214-1.8451,4.0217-2.8365,6.0009-1.9665,3.938-4.1414,7.7684-6.5153,11.4751-1.1494,1.7871-2.3506,3.5393-3.6035,5.2565-.3037.4156-.6123.8276-.9209,1.24-.017.0231-.1348.1777-.2427.3182-.1079.1405-.2313.2982-.25.3211-.6733.8475-1.3551,1.6886-2.054,2.5151-.122.1442-.2582.2757-.381.4191-.3157-2.3039-.6328-4.6083-.994-6.8953-1.5507-10.4616-4.0448-20.7614-7.4518-30.7735-.9152-2.607-1.9135-5.1937-3.0047-7.74,1.9747-4.4335,3.6795-8.9825,5.1048-13.6219,3.5244-11.723,5.836-23.7768,6.8984-35.9719,1.729,1.858,3.38,3.7839,4.953,5.7778.0411.0525.0567.0706.0773.0968.0241.0323.0334.0449.0632.0835.1695.226.34.4508.51.6771.3824.5119.7596,1.0275,1.1316,1.5469.7946,1.1078,1.5668,2.2311,2.3165,3.37,3.1094,4.749,5.8759,9.7138,8.2784,14.8566,1.4608,3.1038,2.1093,4.6289,3.2352,7.4942,1.1012,2.8035,2.1229,5.6366,3.065,8.4993.2519.7629.4527,1.5414.6946,2.3075-1.7006,5.9646-3.65,11.8587-5.9292,17.6271-.3834.9727-.7793,1.9397-1.1788,2.9057Z" style="fill:#f9cb5a;"></path><path id="logoMark_PathItem_3" d="m137.8299,160.2085h-.5811c-.1192-4.1734-.342-8.3494-.7123-12.5207,1.4218-1.3711,2.8294-2.7615,4.1626-4.2486,10.7282-11.9711,18.2992-26.3773,23.8779-41.3972,2.8833,13.354,4.7067,26.9151,5.4532,40.5564.36,5.8638.5257,11.7363.6,17.61h-32.8003Z" style="fill:#93d0c5;"></path><path id="logoMark_PathItem_4" d="m91.7236,159.4043l.0383-.0051c.11-.0156.22-.0323.3306-.0484.0405-.0064-.0496.0062-.3689.0535Z" style="fill:#f26323;"></path><path id="logoMark_PathItem_5" d="m123.6692,146.0838l-.0235.0192c-.4739.3584-.9493.7155-1.43,1.0644-1.7546,1.2709-3.564,2.4609-5.4283,3.57-1.8362,1.0908-3.7195,2.0954-5.65,3.0139-.4747.2255-.9514.4455-1.43.66-.2136.0956-.43.1859-.6428.284l-.0242.0113c-1.0245.4184-2.0532.8221-3.0948,1.1953-4.4291,1.5563-8.9925,2.7001-13.6321,3.4168-.0738.0117-.1469.0213-.22.0321-.04.0064-.18.0273-.3306.0484-.0716.01-.1426.0206-.2143.0312l.176-.0261c-.0859.0119-.1689.0231-.2263.03-.5854.068-1.17.138-1.756.1973-1.3282.1339-2.6587.2353-3.9916.3042-2.9802.1576-5.9666.1565-8.9467-.0034-13.1468-.6909-25.8248-5.1129-36.5494-12.7483-4.937-3.5628-9.419-7.7171-13.3456-12.37-1.8423-2.1477-3.5323-4.4213-5.0579-6.8044-1.719-2.6221-3.2824-5.3431-4.682-8.1487-.6428-1.2893-1.2499-2.5959-1.8212-3.92-.054-.1422-.4839-1.1866-.5747-1.417-.3267-.8338-.6389-1.673-.9366-2.5176-1.0222-2.8979-1.8704-5.8542-2.54-8.8532-.3133-1.4086-.586-2.8255-.8181-4.2506-.034-.2088-.1625-1.0884-.1937-1.2767-.1021-.7995-.1906-1.6008-.2653-2.404-.2688-2.9425-.3548-5.8989-.2576-8.8521.4512-11.8976,3.7476-23.5138,9.6129-33.875,5.966-10.6293,14.6043-19.5164,25.06-25.7817,5.4626-3.303,11.3828-5.7819,17.5691-7.3565,6.6327-1.7693,13.4813-2.5964,20.3445-2.4569,2.8308.0267,5.6565.1838,8.477.4713.6492.0672,1.2976.1437,1.9454.2244l.0589.0069c.05.008.0745.0119.14.022.2823.0438.5661.0837.8485.1279,1.3977.2179,2.7892.4724,4.1747.7635,2.5034.5257,4.9788,1.1765,7.417,1.95,1.1643.37,2.3193.7686,3.4651,1.1959.5683.2123,1.134.4314,1.6971.6575.1164.0467.232.0945.3477.1419-.1589-.0637.5385.2265.713.3037,4.6316,2.0457,9.0386,4.5663,13.15,7.5215.4867.35.9677.7086,1.4487,1.0667.0561.042.1476.113.2391.1843-.161,2.5832-.3043,5.1677-.5527,7.7446-.6804,7.364-1.8149,14.6789-3.397,21.9031-1.2397,5.7439-2.8416,11.4037-4.7962,16.9453-1.8488-3.0337-3.9408-5.9123-6.2556-8.6074-6.6165-7.8548-15.9518-12.9255-26.1426-14.2-16.2886-2.2088-31.7543,7.7912-36.4243,23.5516-5.0054,15.8706,2.8387,33.6661,18.185,40.29,13.7244,5.9233,29.3644,2.5887,40.5354-6.92,3.8052-3.3049,7.1279-7.1272,9.8711-11.3552,2.8005,8.3011,4.9546,16.8065,6.4429,25.44.4165,2.3408.7965,4.6875,1.14,7.04.08.543.158,1.0863.2341,1.63.03.2154.0582.4309.0894.646v.0023c.1447,1.1409.293,2.2812.4285,3.4235.19,1.6081.3037,3.2238.4655,4.835-.6889.5953-1.3842,1.1829-2.0937,1.7534-.1765.1428-.3567.2803-.5312.4244Z" style="fill:url(#linear-gradient);"></path></g></g></g></svg>